<svg width="174" height="48" viewBox="0 0 174 48" fill="none" xmlns="http://www.w3.org/2000/svg">
<g clip-path="url(#clip0_2_6230)">
<rect width="174" height="48" rx="24" fill="#635FC7"/>
<path d="M21.11 31V28.09H18.2V26.395H21.11V23.5H22.805V26.395H25.7V28.09H22.805V31H21.11ZM29.7334 31L33.5884 19.825H36.2284L40.0834 31H37.8634L37.0684 28.6H32.7484L31.9384 31H29.7334ZM33.3334 26.8H36.4834L34.6234 21.235H35.1934L33.3334 26.8ZM44.6641 31.18C43.8741 31.18 43.1691 30.995 42.5491 30.625C41.9291 30.245 41.4391 29.73 41.0791 29.08C40.7191 28.43 40.5391 27.71 40.5391 26.92C40.5391 26.12 40.7191 25.4 41.0791 24.76C41.4391 24.12 41.9291 23.61 42.5491 23.23C43.1791 22.85 43.8791 22.66 44.6491 22.66C45.2691 22.66 45.8191 22.785 46.2991 23.035C46.7891 23.275 47.1741 23.615 47.4541 24.055L47.1541 24.46V19.645H49.1191V31H47.2591V29.425L47.4691 29.815C47.1891 30.255 46.7991 30.595 46.2991 30.835C45.7991 31.065 45.2541 31.18 44.6641 31.18ZM44.8741 29.38C45.3241 29.38 45.7191 29.275 46.0591 29.065C46.3991 28.855 46.6641 28.565 46.8541 28.195C47.0541 27.825 47.1541 27.4 47.1541 26.92C47.1541 26.45 47.0541 26.03 46.8541 25.66C46.6641 25.28 46.3991 24.985 46.0591 24.775C45.7191 24.565 45.3241 24.46 44.8741 24.46C44.4341 24.46 44.0391 24.57 43.6891 24.79C43.3391 25 43.0641 25.29 42.8641 25.66C42.6741 26.02 42.5791 26.44 42.5791 26.92C42.5791 27.4 42.6741 27.825 42.8641 28.195C43.0641 28.565 43.3391 28.855 43.6891 29.065C44.0391 29.275 44.4341 29.38 44.8741 29.38ZM54.7422 31.18C53.9522 31.18 53.2472 30.995 52.6272 30.625C52.0072 30.245 51.5172 29.73 51.1572 29.08C50.7972 28.43 50.6172 27.71 50.6172 26.92C50.6172 26.12 50.7972 25.4 51.1572 24.76C51.5172 24.12 52.0072 23.61 52.6272 23.23C53.2572 22.85 53.9572 22.66 54.7272 22.66C55.3472 22.66 55.8972 22.785 56.3772 23.035C56.8672 23.275 57.2522 23.615 57.5322 24.055L57.2322 24.46V19.645H59.1972V31H57.3372V29.425L57.5472 29.815C57.2672 30.255 56.8772 30.595 56.3772 30.835C55.8772 31.065 55.3322 31.18 54.7422 31.18ZM54.9522 29.38C55.4022 29.38 55.7972 29.275 56.1372 29.065C56.4772 28.855 56.7422 28.565 56.9322 28.195C57.1322 27.825 57.2322 27.4 57.2322 26.92C57.2322 26.45 57.1322 26.03 56.9322 25.66C56.7422 25.28 56.4772 24.985 56.1372 24.775C55.7972 24.565 55.4022 24.46 54.9522 24.46C54.5122 24.46 54.1172 24.57 53.7672 24.79C53.4172 25 53.1422 25.29 52.9422 25.66C52.7522 26.02 52.6572 26.44 52.6572 26.92C52.6572 27.4 52.7522 27.825 52.9422 28.195C53.1422 28.565 53.4172 28.855 53.7672 29.065C54.1172 29.275 54.5122 29.38 54.9522 29.38ZM63.8564 31V19.825H65.4464L71.5964 28.105L70.7714 28.27V19.825H72.8114V31H71.2064L65.1464 22.66L65.8964 22.495V31H63.8564ZM78.6795 31.18C77.8395 31.18 77.1045 30.99 76.4745 30.61C75.8445 30.23 75.3545 29.715 75.0045 29.065C74.6545 28.415 74.4795 27.695 74.4795 26.905C74.4795 26.085 74.6545 25.36 75.0045 24.73C75.3645 24.09 75.8495 23.585 76.4595 23.215C77.0795 22.845 77.7695 22.66 78.5295 22.66C79.1695 22.66 79.7295 22.765 80.2095 22.975C80.6995 23.185 81.1145 23.475 81.4545 23.845C81.7945 24.215 82.0545 24.64 82.2345 25.12C82.4145 25.59 82.5045 26.1 82.5045 26.65C82.5045 26.79 82.4945 26.935 82.4745 27.085C82.4645 27.235 82.4395 27.365 82.3995 27.475H76.0995V25.975H81.2895L80.3595 26.68C80.4495 26.22 80.4245 25.81 80.2845 25.45C80.1545 25.09 79.9345 24.805 79.6245 24.595C79.3245 24.385 78.9595 24.28 78.5295 24.28C78.1195 24.28 77.7545 24.385 77.4345 24.595C77.1145 24.795 76.8695 25.095 76.6995 25.495C76.5395 25.885 76.4795 26.36 76.5195 26.92C76.4795 27.42 76.5445 27.865 76.7145 28.255C76.8945 28.635 77.1545 28.93 77.4945 29.14C77.8445 29.35 78.2445 29.455 78.6945 29.455C79.1445 29.455 79.5245 29.36 79.8345 29.17C80.1545 28.98 80.4045 28.725 80.5845 28.405L82.1745 29.185C82.0145 29.575 81.7645 29.92 81.4245 30.22C81.0845 30.52 80.6795 30.755 80.2095 30.925C79.7495 31.095 79.2395 31.18 78.6795 31.18ZM86.0491 31L83.2441 22.84H85.3141L87.3691 29.035L86.6491 29.02L88.8391 22.84H90.5791L92.7541 29.02L92.0341 29.035L94.0891 22.84H96.1591L93.3541 31H91.5991L89.3791 24.535H90.0391L87.7891 31H86.0491ZM105.317 31.18C104.517 31.18 103.777 31.035 103.097 30.745C102.427 30.455 101.837 30.05 101.327 29.53C100.827 29.01 100.437 28.4 100.157 27.7C99.8773 27 99.7373 26.235 99.7373 25.405C99.7373 24.575 99.8723 23.81 100.142 23.11C100.422 22.4 100.812 21.79 101.312 21.28C101.822 20.76 102.417 20.36 103.097 20.08C103.777 19.79 104.517 19.645 105.317 19.645C106.117 19.645 106.832 19.78 107.462 20.05C108.102 20.32 108.642 20.68 109.082 21.13C109.522 21.57 109.837 22.055 110.027 22.585L108.197 23.44C107.987 22.88 107.632 22.42 107.132 22.06C106.632 21.69 106.027 21.505 105.317 21.505C104.617 21.505 103.997 21.67 103.457 22C102.927 22.33 102.512 22.785 102.212 23.365C101.922 23.945 101.777 24.625 101.777 25.405C101.777 26.185 101.922 26.87 102.212 27.46C102.512 28.04 102.927 28.495 103.457 28.825C103.997 29.155 104.617 29.32 105.317 29.32C106.027 29.32 106.632 29.14 107.132 28.78C107.632 28.41 107.987 27.945 108.197 27.385L110.027 28.24C109.837 28.77 109.522 29.26 109.082 29.71C108.642 30.15 108.102 30.505 107.462 30.775C106.832 31.045 106.117 31.18 105.317 31.18ZM115.362 31.18C114.562 31.18 113.832 30.995 113.172 30.625C112.522 30.255 112.002 29.75 111.612 29.11C111.232 28.47 111.042 27.74 111.042 26.92C111.042 26.1 111.232 25.37 111.612 24.73C112.002 24.09 112.522 23.585 113.172 23.215C113.822 22.845 114.552 22.66 115.362 22.66C116.162 22.66 116.887 22.845 117.537 23.215C118.187 23.585 118.702 24.09 119.082 24.73C119.472 25.36 119.667 26.09 119.667 26.92C119.667 27.74 119.472 28.47 119.082 29.11C118.692 29.75 118.172 30.255 117.522 30.625C116.872 30.995 116.152 31.18 115.362 31.18ZM115.362 29.38C115.802 29.38 116.187 29.275 116.517 29.065C116.857 28.855 117.122 28.565 117.312 28.195C117.512 27.815 117.612 27.39 117.612 26.92C117.612 26.44 117.512 26.02 117.312 25.66C117.122 25.29 116.857 25 116.517 24.79C116.187 24.57 115.802 24.46 115.362 24.46C114.912 24.46 114.517 24.57 114.177 24.79C113.837 25 113.567 25.29 113.367 25.66C113.177 26.02 113.082 26.44 113.082 26.92C113.082 27.39 113.177 27.815 113.367 28.195C113.567 28.565 113.837 28.855 114.177 29.065C114.517 29.275 114.912 29.38 115.362 29.38ZM121.157 31V19.645H123.122V31H121.157ZM127.846 31.18C127.216 31.18 126.666 31.04 126.196 30.76C125.736 30.48 125.381 30.09 125.131 29.59C124.891 29.09 124.771 28.505 124.771 27.835V22.84H126.736V27.67C126.736 28.01 126.801 28.31 126.931 28.57C127.071 28.82 127.266 29.02 127.516 29.17C127.776 29.31 128.066 29.38 128.386 29.38C128.706 29.38 128.991 29.31 129.241 29.17C129.491 29.02 129.686 28.815 129.826 28.555C129.966 28.295 130.036 27.985 130.036 27.625V22.84H132.001V31H130.141V29.395L130.306 29.68C130.116 30.18 129.801 30.555 129.361 30.805C128.931 31.055 128.426 31.18 127.846 31.18ZM133.828 31V22.84H135.673V24.73L135.463 24.415C135.613 23.825 135.913 23.385 136.363 23.095C136.813 22.805 137.343 22.66 137.953 22.66C138.623 22.66 139.213 22.835 139.723 23.185C140.233 23.535 140.563 23.995 140.713 24.565L140.158 24.61C140.408 23.96 140.783 23.475 141.283 23.155C141.783 22.825 142.358 22.66 143.008 22.66C143.588 22.66 144.103 22.79 144.553 23.05C145.013 23.31 145.373 23.675 145.633 24.145C145.893 24.605 146.023 25.14 146.023 25.75V31H144.058V26.215C144.058 25.855 143.993 25.545 143.863 25.285C143.733 25.025 143.553 24.825 143.323 24.685C143.093 24.535 142.813 24.46 142.483 24.46C142.173 24.46 141.898 24.535 141.658 24.685C141.418 24.825 141.233 25.025 141.103 25.285C140.973 25.545 140.908 25.855 140.908 26.215V31H138.943V26.215C138.943 25.855 138.878 25.545 138.748 25.285C138.618 25.025 138.433 24.825 138.193 24.685C137.963 24.535 137.688 24.46 137.368 24.46C137.058 24.46 136.783 24.535 136.543 24.685C136.303 24.825 136.118 25.025 135.988 25.285C135.858 25.545 135.793 25.855 135.793 26.215V31H133.828ZM147.686 31V22.84H149.531V24.445L149.381 24.16C149.571 23.67 149.881 23.3 150.311 23.05C150.751 22.79 151.261 22.66 151.841 22.66C152.441 22.66 152.971 22.79 153.431 23.05C153.901 23.31 154.266 23.675 154.526 24.145C154.786 24.605 154.916 25.14 154.916 25.75V31H152.951V26.215C152.951 25.855 152.881 25.545 152.741 25.285C152.601 25.025 152.406 24.825 152.156 24.685C151.916 24.535 151.631 24.46 151.301 24.46C150.981 24.46 150.696 24.535 150.446 24.685C150.196 24.825 150.001 25.025 149.861 25.285C149.721 25.545 149.651 25.855 149.651 26.215V31H147.686Z" fill="white"/>
</g>
<defs>
<clipPath id="clip0_2_6230">
<rect width="174" height="48" fill="white"/>
</clipPath>
</defs>
</svg>
