<svg width="193" height="48" viewBox="0 0 193 48" fill="none" xmlns="http://www.w3.org/2000/svg">
<g opacity="0.25" clip-path="url(#clip0_0_7687)">
<rect width="164" height="48" rx="24" fill="#635FC7"/>
<path d="M28.11 31H29.805V28.09H32.7V26.395H29.805V23.5H28.11V26.395H25.2V28.09H28.11V31ZM36.7334 31H38.9384L39.7484 28.6H44.0684L44.8634 31H47.0834L43.2284 19.825H40.5884L36.7334 31ZM40.3334 26.8L41.9084 22.09L43.4834 26.8H40.3334ZM51.6641 31.18C52.1941 31.18 52.6841 31.09 53.1341 30.91C53.5841 30.72 53.9591 30.45 54.2591 30.1V31H56.1191V19.645H54.1541V23.665C53.5441 22.995 52.7091 22.66 51.6491 22.66C50.8791 22.66 50.1791 22.85 49.5491 23.23C48.9291 23.6 48.4391 24.11 48.0791 24.76C47.7191 25.4 47.5391 26.12 47.5391 26.92C47.5391 27.72 47.7191 28.445 48.0791 29.095C48.4391 29.735 48.9291 30.245 49.5491 30.625C50.1691 30.995 50.8741 31.18 51.6641 31.18ZM51.8741 29.38C51.4341 29.38 51.0391 29.275 50.6891 29.065C50.3391 28.855 50.0641 28.565 49.8641 28.195C49.6741 27.815 49.5791 27.39 49.5791 26.92C49.5791 26.45 49.6741 26.03 49.8641 25.66C50.0641 25.29 50.3391 25 50.6891 24.79C51.0391 24.57 51.4341 24.46 51.8741 24.46C52.3141 24.46 52.7041 24.565 53.0441 24.775C53.3941 24.985 53.6641 25.275 53.8541 25.645C54.0541 26.015 54.1541 26.44 54.1541 26.92C54.1541 27.4 54.0541 27.825 53.8541 28.195C53.6641 28.565 53.3941 28.855 53.0441 29.065C52.7041 29.275 52.3141 29.38 51.8741 29.38ZM61.7422 31.18C62.2722 31.18 62.7622 31.09 63.2122 30.91C63.6622 30.72 64.0372 30.45 64.3372 30.1V31H66.1972V19.645H64.2322V23.665C63.6222 22.995 62.7872 22.66 61.7272 22.66C60.9572 22.66 60.2572 22.85 59.6272 23.23C59.0072 23.6 58.5172 24.11 58.1572 24.76C57.7972 25.4 57.6172 26.12 57.6172 26.92C57.6172 27.72 57.7972 28.445 58.1572 29.095C58.5172 29.735 59.0072 30.245 59.6272 30.625C60.2472 30.995 60.9522 31.18 61.7422 31.18ZM61.9522 29.38C61.5122 29.38 61.1172 29.275 60.7672 29.065C60.4172 28.855 60.1422 28.565 59.9422 28.195C59.7522 27.815 59.6572 27.39 59.6572 26.92C59.6572 26.45 59.7522 26.03 59.9422 25.66C60.1422 25.29 60.4172 25 60.7672 24.79C61.1172 24.57 61.5122 24.46 61.9522 24.46C62.3922 24.46 62.7822 24.565 63.1222 24.775C63.4722 24.985 63.7422 25.275 63.9322 25.645C64.1322 26.015 64.2322 26.44 64.2322 26.92C64.2322 27.4 64.1322 27.825 63.9322 28.195C63.7422 28.565 63.4722 28.855 63.1222 29.065C62.7822 29.275 62.3922 29.38 61.9522 29.38ZM70.8564 31H72.8964V23.695L78.2064 31H79.8114V19.825H77.7714V26.995L72.4464 19.825H70.8564V31ZM85.6795 31.18C86.5095 31.18 87.2345 30.995 87.8545 30.625C88.4845 30.245 88.9245 29.765 89.1745 29.185L87.5845 28.405C87.4045 28.715 87.1545 28.97 86.8345 29.17C86.5245 29.36 86.1445 29.455 85.6945 29.455C85.1045 29.455 84.6095 29.275 84.2095 28.915C83.8095 28.555 83.5795 28.075 83.5195 27.475H89.3995C89.4395 27.365 89.4645 27.24 89.4745 27.1C89.4945 26.95 89.5045 26.8 89.5045 26.65C89.5045 25.92 89.3495 25.255 89.0395 24.655C88.7295 24.055 88.2795 23.575 87.6895 23.215C87.0995 22.845 86.3795 22.66 85.5295 22.66C84.7695 22.66 84.0795 22.845 83.4595 23.215C82.8495 23.585 82.3645 24.09 82.0045 24.73C81.6545 25.36 81.4795 26.085 81.4795 26.905C81.4795 27.695 81.6545 28.415 82.0045 29.065C82.3545 29.715 82.8445 30.23 83.4745 30.61C84.1045 30.99 84.8395 31.18 85.6795 31.18ZM85.5295 24.28C86.0495 24.28 86.4795 24.44 86.8195 24.76C87.1695 25.07 87.3645 25.475 87.4045 25.975H83.5645C83.6745 25.435 83.9045 25.02 84.2545 24.73C84.6145 24.43 85.0395 24.28 85.5295 24.28ZM93.0491 31H94.7891L96.7091 25.495L98.5991 31H100.354L103.159 22.84H101.089L99.3791 27.97L97.5791 22.84H95.8391L94.0241 27.985L92.3141 22.84H90.2441L93.0491 31ZM109.047 31H111.102V21.625H113.952V19.825H106.152V21.625H109.047V31ZM116.614 31.18C117.674 31.18 118.524 30.83 119.164 30.13V31H121.024V25.57C121.024 25 120.879 24.495 120.589 24.055C120.299 23.615 119.899 23.275 119.389 23.035C118.889 22.785 118.304 22.66 117.634 22.66C116.814 22.66 116.084 22.855 115.444 23.245C114.804 23.635 114.364 24.15 114.124 24.79L115.729 25.57C115.879 25.2 116.114 24.905 116.434 24.685C116.754 24.455 117.129 24.34 117.559 24.34C118.009 24.34 118.369 24.46 118.639 24.7C118.919 24.93 119.059 25.22 119.059 25.57V25.84L116.629 26.23C115.669 26.39 114.959 26.695 114.499 27.145C114.039 27.595 113.809 28.16 113.809 28.84C113.809 29.56 114.064 30.13 114.574 30.55C115.084 30.97 115.764 31.18 116.614 31.18ZM115.849 28.765C115.849 28.195 116.234 27.835 117.004 27.685L119.059 27.34V27.67C119.059 28.23 118.864 28.705 118.474 29.095C118.094 29.485 117.594 29.68 116.974 29.68C116.644 29.68 116.374 29.6 116.164 29.44C115.954 29.27 115.849 29.045 115.849 28.765ZM125.945 31.18C126.565 31.18 127.105 31.075 127.565 30.865C128.025 30.655 128.385 30.365 128.645 29.995C128.905 29.615 129.035 29.18 129.035 28.69C129.035 28.12 128.855 27.63 128.495 27.22C128.135 26.81 127.615 26.51 126.935 26.32L125.63 25.93C125.35 25.85 125.12 25.745 124.94 25.615C124.76 25.485 124.67 25.305 124.67 25.075C124.67 24.835 124.765 24.64 124.955 24.49C125.145 24.34 125.405 24.265 125.735 24.265C126.145 24.265 126.515 24.375 126.845 24.595C127.185 24.815 127.42 25.11 127.55 25.48L129.05 24.775C128.8 24.115 128.38 23.6 127.79 23.23C127.2 22.85 126.52 22.66 125.75 22.66C125.16 22.66 124.635 22.765 124.175 22.975C123.725 23.185 123.37 23.48 123.11 23.86C122.86 24.23 122.735 24.665 122.735 25.165C122.735 25.725 122.91 26.21 123.26 26.62C123.62 27.03 124.145 27.335 124.835 27.535L126.17 27.91C126.43 27.98 126.65 28.085 126.83 28.225C127.02 28.355 127.115 28.535 127.115 28.765C127.115 29.035 127.005 29.25 126.785 29.41C126.575 29.56 126.295 29.635 125.945 29.635C125.485 29.635 125.07 29.505 124.7 29.245C124.33 28.985 124.035 28.625 123.815 28.165L122.345 28.87C122.585 29.57 123.025 30.13 123.665 30.55C124.315 30.97 125.075 31.18 125.945 31.18ZM130.545 31H132.51V28.51L133.56 27.37L135.855 31H138.105L135.03 26.125L138.045 22.84H135.6L132.51 26.08V19.645H130.545V31Z" fill="white"/>
</g>
<circle cx="190.308" cy="16.3077" r="2.30769" fill="#828FA3"/>
<circle cx="190.308" cy="24" r="2.30769" fill="#828FA3"/>
<circle cx="190.308" cy="31.6923" r="2.30769" fill="#828FA3"/>
<defs>
<clipPath id="clip0_0_7687">
<rect width="164" height="48" fill="white"/>
</clipPath>
</defs>
</svg>
